<svg xmlns="http://www.w3.org/2000/svg" width="196" height="196" viewBox="0 0 196 196" version="1.1">
	<path d="M 68 14.083 C 62.225 14.522, 56.038 15.154, 54.250 15.486 L 51 16.091 51.042 80.295 L 51.085 144.500 53.385 139 C 59.880 123.468, 68.107 111.902, 82.250 98.418 C 94.293 86.936, 103.060 79.827, 116.041 71.015 L 126.500 63.915 126.796 70.458 C 126.958 74.056, 127.311 77, 127.579 77 C 129.860 77, 138.535 71.199, 141.798 67.492 C 154.092 53.526, 150.592 32.647, 134.194 22.125 C 121.382 13.903, 101.744 11.517, 68 14.083 M 135.500 90.830 C 103.751 107.687, 74.804 132.640, 65.347 151.301 C 59.997 161.860, 57.569 172.573, 58.683 180.704 C 59.452 186.312, 60.568 186.165, 61.365 180.353 C 61.715 177.797, 63.630 172.322, 65.619 168.186 C 71.436 156.092, 90.860 138.005, 106 130.584 C 109.348 128.942, 109.305 129.030, 105 132.598 C 98.810 137.728, 86.360 150.459, 84.942 153.109 L 83.777 155.286 95.348 154.573 C 131.552 152.344, 149.402 141.212, 153.305 118.432 C 155.059 108.188, 151.511 95.731, 145.089 89.590 L 142.500 87.114 135.500 90.830" stroke="none" fill="#fa0000" fill-rule="evenodd"/>
</svg>